<svg xmlns="http://www.w3.org/2000/svg" width="256" height="256" viewBox="0 0 256 256">
  <rect width="256" height="256" rx="48" fill="#0a0a0f"/>

  <!-- pixel corner accents -->
  <rect x="16" y="16" width="10" height="10" fill="#ff6b9d"/>
  <rect x="230" y="16" width="10" height="10" fill="#b388ff"/>
  <rect x="16" y="230" width="10" height="10" fill="#7dd3fc"/>
  <rect x="230" y="230" width="10" height="10" fill="#ff6b9d"/>

  <!-- cat-eared image frame, scaled and centered -->
  <g transform="translate(-6,-29) scale(1.6)">
    <rect x="44" y="52" width="8" height="12" fill="#ff6b9d"/>
    <rect x="52" y="44" width="8" height="20" fill="#ff6b9d"/>
    <rect x="60" y="52" width="8" height="12" fill="#ff6b9d"/>
    <rect x="52" y="52" width="8" height="8" fill="#b388ff"/>
    <rect x="100" y="52" width="8" height="12" fill="#ff6b9d"/>
    <rect x="108" y="44" width="8" height="20" fill="#ff6b9d"/>
    <rect x="116" y="52" width="8" height="12" fill="#ff6b9d"/>
    <rect x="108" y="52" width="8" height="8" fill="#b388ff"/>
    <rect x="28" y="64" width="112" height="88" fill="#ff6b9d"/>
    <rect x="36" y="72" width="96" height="72" fill="#0a0a0f"/>
    <rect x="104" y="84" width="12" height="12" fill="#f0f0f5"/>
    <rect x="88" y="132" width="36" height="12" fill="#7dd3fc"/>
    <rect x="96" y="120" width="20" height="12" fill="#7dd3fc"/>
    <rect x="44" y="128" width="48" height="16" fill="#b388ff"/>
    <rect x="52" y="116" width="32" height="12" fill="#b388ff"/>
    <rect x="60" y="104" width="16" height="12" fill="#b388ff"/>
  </g>
</svg>